# xmcd CD database file
# Copyright (C) 1993-1998 Ti Kan
#
# Track frame offsets:
# 183
# 18963
# 42363
# 56838
# 73188
# 88713
# 107238
# 132888
# 149913
# 168963
# 182313
# 194088
#
# Disc length: 2857 seconds
# Revision: 0
# Processed by: cddbd v1.4b41PL1 Copyright (c) Steve Scherf et al.
# Submitted via: CDSpectrumPro v3.3.333
#
DISCID=b30b270c
DTITLE=Cliff Richard - Dressed For The Occasion
DYEAR=1900
DGENRE=
TTITLE0=Green Light
TTITLE1=We Don't Talk Anymore
TTITLE2=True Love Ways
TTITLE3=Softly As I Leave You
TTITLE4=Carrie
TTITLE5=Miss You Nights
TTITLE6=Galadriel
TTITLE7=Maybe Someday
TTITLE8=Thief In The Night
TTITLE9=Up In The World
TTITLE10=Treasure Of Love
TTITLE11=Devil Woman-Reprise
EXTD=
EXTT0=
EXTT1=
EXTT2=
EXTT3=
EXTT4=
EXTT5=
EXTT6=
EXTT7=
EXTT8=
EXTT9=
EXTT10=
EXTT11=
PLAYORDER=
